<?xml version="1.0" encoding="utf-8"?>
<!-- Generator: Adobe Illustrator 24.1.2, SVG Export Plug-In . SVG Version: 6.00 Build 0)  -->
<svg version="1.1" id="FGW" xmlns="http://www.w3.org/2000/svg" xmlns:xlink="http://www.w3.org/1999/xlink" x="0px" y="0px"
	 viewBox="0 0 2000 2000" style="enable-background:new 0 0 2000 2000;" xml:space="preserve">
<g>
	<path style="fill:#36C63D;" d="M430.1,851.3c0.9,0.1,1.7,0.1,2.6,0.1c15.6,0,28.9-8.2,34.4-12.3c0,0,0,0,0.1-0.1h58.7
		c22.9,0,44.5-8.8,60.9-24.7c8-7.7,18.5-12,29.5-12h5.6c0,0,0,0,0,0c-10.2,10.7-15.7,29-16.3,31.3l-2.9,10.1l10.2-2.6
		c0.1-0.1,15.7-4.2,33.7-5.8c15.5-1.4,20.5-20.3,21-31.3v-1.7l0,0h56.2c11.3,0,22.6-2.5,32.9-7.1c-3.8,15.6,6.8,38,8,40.5l4.7,9.5
		l5.8-8.7c0-0.1,8.9-13.6,21.1-26.9c10.6-11.4,1.5-28.8-5.5-37.2l0,0l20-14.8l0-0.1l59.8,43.6c15.9,11.6,25.7,30.2,26.2,49.9
		l0.2,6.8l-0.1-0.1c-2-2.9-4.2-5.5-7.1-7.7c-13.3-9.7-39.5-6.5-42.4-6l-10.3,1.4l6.5,8.2c0.1,0.1,10.1,12.8,18.8,28.5
		c4.2,7.6,11.9,10,19.8,10c5.6,0,11.4-1.2,15.7-2.7l2.3,83c0.3,12.3,5.1,24.1,13.3,33.3l105.8,117l7.9-9.1l-54.1-59.8l31-48.7
		c6.6-10.4,10.1-22.3,10.1-34.6V844.7c0-18.4-9-35.7-24-46.3l-3.3-2.4c-9.1-6.4-15.6-15.6-18.7-26c0,0,0,0,0.1,0
		c0.7,0.1,1.5,0.1,2.2,0.1c11.2,0,26.4-3.6,29.5-16.7c4.1-17.6,10.2-32.6,10.2-32.7l4.1-9.7l-10.4,1.6c-2.7,0.4-26.2,4.1-37.2,15.4
		c0,0-0.1,0-0.1,0.1l0.9-75.8l0,0l2.8,0.2c1.4,0.1,2.8,0.2,4.4,0.2c11.2,0,26.4-3.6,29.5-16.8c4.1-17.5,10.2-32.4,10.2-32.6l4.1-9.7
		l-10.3,1.5c-1.5,0.2-8.7,1.4-16.8,4.1c-8.2,2.7-17.2,7-22.4,13.4c-0.4,0.5-0.7,1-1,1.5c0,0,0,0,0,0l0-2.2
		c0.1-10.7,4.4-20.8,12-28.4l24.4-24.3c11.8-11.8,18.3-27.5,18.3-44.1V360.2c1.5-1.9,3.8-5.1,6.1-9.2c4.1-7.4,8.2-17.7,7.7-29.1
		c-0.7-21.9-17.9-38.5-18.7-39.2l-4.4-4.2l-4.2,4.5c-0.6,0.7-16.5,18.7-15.6,40.4c0.6,15.4,9.2,28,14.5,34.5c1,1.3,1.9,2.3,2.6,3
		v154c0,13.5-5.2,26.1-14.8,35.7L971,575.1c-9.8,9.8-15.3,22.8-15.5,36.7l-0.5,40.1c-12-9-32.3-11.4-34.9-11.8l-10.4-1.1l4.3,9.6
		c0.1,0.1,6.8,14.7,11.3,32.2c3.3,12.5,17.3,15.9,28.3,15.9h0.9c0,0,0,0,0,0l-0.2,18.9L902.6,683c-10.3-6.5-16.4-17.6-16.4-29.8
		v-29.3l0,0l3.2,0.2c1.5,0.1,2.9,0.2,4.5,0.2c11.1,0,26.3-3.4,29.4-16.7c4.1-17.6,10.2-32.4,10.3-32.6l3.9-9.7l-10.3,1.5
		c-1.5,0.2-8.7,1.2-16.8,3.9c-8.1,2.7-17.2,7-22.2,13.5c-0.7,1-1.5,2-2,2.9c0,0,0,0,0,0.1v-27.2c2.1-2.6,12.7-15.9,12.7-32.1v-1.2
		c-0.7-18.3-15-32.2-15.6-32.7l-4.4-4.3l-4.2,4.5c-0.5,0.6-13.8,15.6-13,33.8c0.4,9.6,4.4,17.9,8.4,23.7c1.5,2.4,3,4.3,4.3,5.8v70.6
		c-0.6-0.8-1.2-1.8-1.9-2.6c-10.4-12.7-36.6-15.9-39.6-16.2l-10.4-1.1l4.3,9.6c0.1,0.1,6.8,14.7,11.3,32.2
		c3.3,12.5,17.3,15.9,28.3,15.9c2.2,0,4.3-0.1,6.1-0.4l3.4-0.5c3,11.5,10.2,21.5,20.5,28.1l57.8,36l-0.3,26
		c-0.2,20.1,9.4,39.1,25.8,50.7l3.3,2.4c11.1,7.9,18,20.4,18.8,34c0-0.1-0.1-0.1-0.1-0.2c-0.5-0.7-1.1-1.6-1.7-2.3
		c-10.6-12.5-36.8-15.7-39.7-16.1l-10.4-1.2l4.3,9.6c0.1,0.1,6.8,14.9,11.3,32.3c3.3,12.4,17.3,15.7,28.3,15.7
		c2.2,0,4.3-0.1,6.1-0.4l2-0.2v91.1c0,7.2-1.5,14.3-4.4,20.9c-4.1-14.9-20.6-29.5-22.5-31.4l-7.9-7l-1.8,10.3
		c-0.1,0.2-3.1,16.1-9.2,32.9c-5.1,14.4,9.1,26.7,18.8,31.9l-10.4,16.3L922,997.5c-6.4-7-10-16.1-10.3-25.6l-0.6-21.8l2-0.1
		c10.9-0.7,29.9-6,31.1-21.5c1.4-17.9,5.2-33.6,5.2-33.7l2.6-10.2l-10.1,2.9c-1.5,0.5-8.4,2.7-16,6.5c-5.6,2.9-11.7,6.7-16,11.4
		l-1.5-54.9c-0.6-23.3-12.3-45.4-31.1-59.2l-9.2-6.7c8.4-7.4,18.8-21.4,11.4-33.9c-9.2-15.5-15-30.5-15-30.7l-3.8-9.7l-6.5,8.2
		c-1.7,2.2-16.5,21.4-16.5,37.4c0,0.7,0,1.5,0.1,2.2c0.1,1.8,0.6,3.5,1.1,5.2l-64.3-46.9c-9.5-6.9-15.2-17.8-15.6-29.4l5.8-2.1
		c0.4-0.1,5.3-1.8,10.9-5.7c5.9-3.8,12.5-9.7,16.6-17.8c8.1-16.5,2.1-35.4,1.8-36.3l-1.8-5.8l-5.9,2c-0.7,0.4-18.3,6.7-26.8,22.1
		l1-57.1c0.2-9.8,4.4-19.3,11.6-26l4.2-3.9c7.5-6.9,12.5-16,14.5-25.9c1,0.1,1.9,0.1,3,0.1c11.1,0,26.3-3.4,29.4-16.7
		c4.1-17.6,10.2-32.4,10.3-32.6l3.9-9.7l-10.3,1.5c-2.6,0.5-23,3.7-34.8,13.2h-0.1l0.2-13.9l34.2-12.6c12.9-4.8,22.8-15,27.1-28
		l12.9-38.6h0c7.5-0.1,20.9-1.7,28.9-11.2c10.6-12.5,9.3-38.8,9.2-41.8l-0.6-10.4l-8.7,5.8c-0.1,0.1-13.5,9.2-29.9,16.7
		c-13.8,6.3-12.8,24.8-9.7,35.5l-13.4,40.3c-3.2,9.6-10.5,17.1-19.9,20.6l-29.8,11l0.9-60.5c3.6-4.4,13.9-18.9,13.3-36
		c-0.9-20.2-16.6-35.4-17.3-36l-4.4-4.3l-4.1,4.5c-0.6,0.7-15.2,17.2-14.4,37.4c0.6,15.2,9.7,27.7,14.4,33.1
		c0.2,0.2,0.4,0.4,0.5,0.6l-0.9,55.9l-0.1-1.6c-1.2-4-3.2-7.7-6.5-11c-11.6-11.7-37.8-12.7-40.8-12.8l-10.5-0.2l5.1,9.1
		c0.1,0.2,7.9,14.3,14,31.3c4.4,12.2,18.6,14.3,29.5,13.4c2.2-0.2,4.3-0.6,6.1-0.9l2.8-0.6l-0.6,40.8c-0.2,9.9-4.4,19.3-11.6,26
		l-4.2,3.9c-9.6,8.9-15.3,21.5-15.5,34.5l-0.4,21.2l-41.2-24.9l0.1-0.1c8.4-7.1,20.4-22.6,12.2-35.8c-9.6-15.2-15.9-30.1-15.9-30.2
		l-4.1-9.7l-6.3,8.5c-1.7,2.2-15.4,21.1-15.4,37c0,1,0,2,0.1,2.9c0.6,4.9,2.6,9.2,5.2,12.9l0,0c-8.1-4.9-14.8-11.8-19.4-20.1
		L623,475.5v-1c0-6.1-0.9-23.8-11.9-36.9c-13.3-15.7-35.5-18.2-36.5-18.3l-6.1-0.6l-0.4,6.1c-0.1,1-1.5,23.4,11.8,39.1
		c9.6,11.4,24,15.9,31.5,17.5c0.5,0.1,1,0.2,1.4,0.3l10.8,19.1c0,0,0,0-0.1,0c-14.4-3.4-32.9,1.2-35.4,1.8l-10.1,2.6l7.4,7.4
		c0.1,0.1,11.6,11.6,22.1,26.2c4.2,5.7,10.3,7.7,16.8,7.7c7.6,0,15.6-2.8,20.9-5.7l0.6-0.4l0,0l7.5,13.3c5.6,10,13.8,18.5,23.7,24.4
		l71.1,43.1l-0.5,29.2c-1-3-2.6-5.9-4.8-8.5c-10.6-12.5-36.6-15.9-39.6-16.1l-10.4-1.2l4.3,9.6c0.1,0.1,6.6,14.9,11.3,32.2
		c3.3,12.5,17.3,15.9,28.3,15.9c2.2,0,4.3-0.1,6.1-0.4l3.9-0.5l0.4-1.5l-0.1,4.9c-0.3,16.3,7.4,31.7,20.5,41.3l32.9,24L775,769
		c0,0,0,0,0-0.1c0.4-7.3-0.7-16.6-6.6-23.7c-10.6-12.7-36.8-15.9-39.7-16.2l-10.4-1.2l4.3,9.6c0.1,0.1,6.8,14.9,11.3,32.3
		c2.3,8.7,9.8,12.9,17.9,14.6c0,0,0.1,0,0.1,0c-8.8,4-18.5,6.2-28.2,6.2h-50l-16.4-37.2c-9.3-21.2-30.3-34.8-53.4-34.8h-9.8l0,0
		l0.4-2.1c2.2-10.7,1.8-30.4-12.9-35.4c-17.1-5.8-31.2-13.5-31.3-13.5l-9.2-5l0.4,10.4c0.1,3.1,1.5,29.4,13.3,40.7
		c2.2,2.1,4.7,3.7,7.3,4.9c0,0,0,0,0,0h-21.7c-20.3,0-40-8.3-54.2-22.9L473,682.2c0.9-1,14.7-16.9,14-36.3
		c-0.9-19.5-16.1-34.4-16.8-35l-4.4-4.3l-4.1,4.5c-0.6,0.7-14.9,16.7-14,36.4c0.5,11.6,6,21.5,10.6,27.8c0.6,0.9,1.3,1.7,1.8,2.4
		c-0.3-0.1-0.7-0.1-0.9-0.2c-2.7-0.6-5.5-0.8-8.3-0.6c-14.2,0.6-29.8,8.5-31.9,9.6l-9.3,4.9l9,5.5c0.1,0.1,13.8,8.6,27.4,20.4
		c5.2,4.7,11.8,5.2,18,3.8c7.4-1.7,14.6-6.2,19.1-10.2l1.1-0.9c15.6,13,35.6,20.3,56,20.3h63.7c10.4,0,20.3,3.5,28.2,9.6
		c-0.2-0.1-0.5-0.1-0.7-0.2c0-0.1-0.1,0-0.1,0c-15.3-4.9-38,3.5-40.6,4.5l-9.8,3.8l8.3,6.5c0.1,0.1,12.8,10,24.9,23.4
		c4.7,5.3,11.1,6.5,17.5,5.8c7.6-0.9,15.2-4.6,20.1-8l1.9-1.3l7.1,16h-44.3c-14.2,0-27.7,5.4-37.9,15.3
		c-13.1,12.7-30.1,20.1-48.2,21.2c0-0.1,0-0.1,0-0.2c1.7-10.9,0.9-28.9-13.2-33.7c-17.1-5.8-31.2-13.4-31.3-13.5l-9.3-5l0.5,10.6
		c0.1,2.9,1.5,29.3,13.3,40.7c0.5,0.5,1,0.9,1.5,1.2c0,0,0,0,0.1,0h-22.4c0,0,0,0,0,0c-4.1-4.1-18.3-16.7-36.8-17.8
		c-21.3-1.4-39.1,13.8-39.8,14.5l-4.7,3.9l4.2,4.5C393,832.9,408.8,850,430.1,851.3z M645.3,823.6c-9.6,0.9-18.3,2.5-24.8,3.7
		c3.2-7.5,8-16.2,13.5-19.4c2.7-1.6,5.9-2.2,9.1-2.2c4.3,0,8.6,1.1,11.9,2.2C654.1,814,651.2,823.1,645.3,823.6z M872.5,876.2
		c-4.7-8.4-9.6-15.9-13.3-21.3h1.4c7.9,0,17,1.1,21.9,4.5c5.8,4.3,7.9,13.3,8.5,19.3C884.8,880.3,875.3,881.5,872.5,876.2z
		 M973.8,737.3c3.9-5,13.3-8.6,21.1-10.7c-2.2,6.1-4.8,14.7-7,24.1c-1.4,5.8-10.7,7.3-17,7.4C969.8,752.2,969.3,743,973.8,737.3z
		 M977.9,619.9c3.9-5,13.3-8.6,21.1-10.7c-2.2,6.1-4.8,14.7-7,24.1c-1.4,5.8-10.7,7.3-17,7.4c-0.4-2.2-0.7-5-0.7-7.9
		C974.4,628.3,975.2,623.4,977.9,619.9z M1004.9,323.1c-0.4-10.8,4.8-20.6,8.6-26.5c4.2,5.5,10.1,15,10.4,25.8
		c0.5,10.7-4.7,20.6-8.5,26.4C1011.2,343.3,1005.4,333.8,1004.9,323.1z M954.2,684.6c-6.3,0-15.7-1.1-17.3-6.9
		c-2.5-9.2-5.4-17.7-7.7-23.8c7.9,2,17.5,5.2,21.5,10.1c3.2,3.7,4.1,9.1,4.1,14C954.7,680.4,954.5,682.6,954.2,684.6z M897.6,591.5
		c4.1-5,13.3-8.6,21.1-10.7c-2.1,6.3-4.8,14.7-6.9,24.1c-1.4,5.8-10.8,7.3-17.1,7.4c-0.4-2.2-0.7-5-0.7-7.9
		C894,599.9,894.8,595,897.6,591.5z M866.7,653.9c-6.3,0-15.7-1.1-17.2-6.9c-2.5-9.2-5.4-17.7-7.7-23.8c7.9,2,17.3,5.2,21.5,10.1
		C867.8,638.7,867.7,648,866.7,653.9z M879.5,508c3.3,4.5,7.1,11.4,7.5,19.1c0.2,7.7-3.1,15-5.9,19.7c-3.3-4.5-7.1-11.4-7.5-19.1
		C873.3,520,876.6,512.7,879.5,508z M994.2,868c-6.3,0-15.6-1.1-17.2-6.9c-2.5-9.3-5.4-17.7-7.7-23.8c7.9,1.8,17.5,5.2,21.5,10.1
		C995.3,852.9,995.1,862.1,994.2,868z M967.2,1000.4c3.3-9.1,5.8-17.6,7.4-24.1c5.3,6.1,11.3,14.3,11.8,20.5
		c0.6,7.3-4.8,14.6-8.8,19.1C972.3,1012.3,965.3,1005.9,967.2,1000.4z M916.4,916.6c3.1-5.7,11.8-10.6,19.3-13.9
		c-1.2,6.5-2.6,15.4-3.3,25c-0.5,5.9-9.5,8.7-15.7,9.8C914.6,931.9,912.8,922.9,916.4,916.6z M857.6,734.6c2.8,6,6.8,14,11.6,22.4
		c3.1,5-2.7,12.7-7.3,17.1c-4.8-3.6-11.6-9.8-12.2-17.1C849.1,750.6,853.4,741.6,857.6,734.6z M769.6,650.4
		c3.4-6.9,9.8-11.7,14.6-14.5c0.2,1.7,0.4,3.8,0.4,5.9c0,4.7-0.7,9.8-2.9,14.5c-3.4,6.9-9.8,11.7-14.6,14.4
		C766.3,665.1,766.3,657.3,769.6,650.4z M797.6,498.2c3.9-5.2,13.3-8.7,21.1-10.8c-2.1,6.3-4.8,14.7-7,24.1
		c-1.4,5.8-10.7,7.3-17,7.5C793.7,513.1,793.2,503.9,797.6,498.2z M870.8,363.3c8.7-4.1,16.6-8.4,22.2-11.7
		c-0.5,8.1-2.2,17.9-6.3,22.9c-4.7,5.5-13.9,6.9-19.8,7C865.8,375.5,865.3,365.7,870.8,363.3z M771.2,470.5
		c-6.2,0.5-15.8,0.2-17.7-5.4c-3.2-9-6.9-17.2-9.7-23.1c8,1.2,17.7,3.7,22.3,8.2C771,455.4,771.6,464.6,771.2,470.5z M779,364.4
		c-0.4-9.2,3.8-17.8,7.3-23.2c3.8,5,8.7,13.4,9.1,22.6c0.1,6-1.5,11.8-3.7,16.5c-1.2,2.6-2.5,4.9-3.7,6.8c-1.5-1.8-2.9-4.2-4.4-6.9
		C781.2,375.6,779.2,370.3,779,364.4z M697.2,531.1c2.8,5.9,7,13.9,12.2,22c3.1,5-2.5,12.7-6.8,17.3c-4.9-3.4-11.8-9.6-12.7-16.7
		C689.1,547.3,693.1,538.2,697.2,531.1z M617.2,531.8c-5.7-7.9-11.3-14.6-15.7-19.5c3.2-0.5,6.9-0.7,10.3-0.7c5,0,10,0.6,13.3,2.5
		c6.3,3.6,9.5,12.2,10.7,18.1C629.8,534.4,620.6,536.6,617.2,531.8z M588.9,456.2c-6.1-7.4-8.1-17.1-8.7-23.6
		c6.3,1.7,15.5,5.3,21.8,12.7c6.3,7.4,8.2,17.2,8.8,23.7C604.6,467.3,595.2,463.7,588.9,456.2z M737.1,670.4
		c-6.4,0-15.7-1.2-17.2-6.9c-2.5-9.3-5.4-17.7-7.7-23.8c7.9,1.8,17.3,5.2,21.5,10C738.2,655.2,738,664.4,737.1,670.4z M787.3,801.5
		c-6.5,7.1-12,14.1-16,19.4c-2-5.8-3.7-12.5-3.7-18.2c0-2,0.2-3.8,0.7-5.4c2.1-6.9,10.1-11.7,15.5-14
		C787.3,788.6,791.4,797.2,787.3,801.5z M745.4,766.6c-2.5-9.2-5.4-17.7-7.7-23.8c7.9,1.8,17.5,5.2,21.5,10.1
		c4.7,5.5,4.4,14.7,3.6,20.6C756.3,773.6,747,772.3,745.4,766.6z M554.4,682.7c6,2.8,14.3,6.4,23.4,9.5c5.5,2,6,11.4,5.5,17.7
		c-5.9,0.5-15.1,0-20.3-4.9C558.3,700.4,555.7,690.9,554.4,682.7z M466.5,624.7c3.6,4.9,8.2,12.8,8.6,21.6
		c0.2,8.8-3.7,17.1-6.9,22.2c-3.7-4.9-8.2-12.8-8.6-21.6C459.2,638.1,463.2,629.9,466.5,624.7z M453.9,708.4
		c-7.2-6.3-14.4-11.6-19.8-15.4c7.7-2.9,17.3-5.5,23.5-3.6c0.8,0.2,1.7,0.6,2.5,0.9l2.8,1.9c4.2,3.3,7.2,8.4,9.1,12.3
		C466.8,708.1,458.3,712.4,453.9,708.4z M622.8,769.9c-6.4-7.1-12.9-13.1-17.8-17.5c7.9-2,17.8-3.5,23.8-1
		c6.6,2.7,10.7,11,12.6,16.7C635.8,771,626.9,774.4,622.8,769.9z M490,795.1c6,2.7,14.1,6.3,23.2,9.3c5.7,2,6.1,11.4,5.7,17.7
		c-1.1,0.1-2.3,0.1-3.7,0.1c-5.5,0-12.4-1.1-16.6-5C493.9,812.7,491.3,803.1,490,795.1z M430.1,821.1h1.8
		c10.2,0.6,19.2,6.4,24.6,10.6c-5.8,3.6-15.5,8.2-25.7,7.6c-10.3-0.6-19.3-6.4-24.7-10.6C411.6,825.4,420.5,821.1,430.1,821.1z"/>
	<path style="fill:#36C63D;" d="M1087.9,1233.4c-0.7,21.1-12.7,40.2-31.4,50l-24.4,12.8c-7.6,4-13.8,9.9-18.2,16.9
		s-7.1,15.2-7.2,23.8c0,13.8,5.5,19.3,14.6,23.4l5.3,2.4l-14.6,6.5l-2.8-1.3c-9.1-4.2-13.9-13.2-14.6-23.4l0.4-14.9
		c0.5-17.2,10.2-32.7,25.4-40.7l27.4-14.3c8.5-4.4,15.4-11,20.3-18.8c4.9-7.8,7.8-16.9,8.1-26.4c0.8-22.3-6.7-44.1-20.9-61.3
		l-10.7-13l7.9-9.2l9.7,11.7C1079.6,1178.7,1088.8,1205.8,1087.9,1233.4z"/>
	<path style="fill:#36C63D;" d="M1056.3,1218.3l-0.1,2.1c-0.6,16.9-10.2,32.2-25.2,40.1l-30.6,16c-15.2,8-24.9,23.5-25.4,40.7
		c0,0-0.6,35.9-0.6,36.2c0,10.8,3.8,23,12.7,27.7l-12.5,5.7c-8.1-5.7-13-15.1-12.7-25.3l1.4-51.6c0.5-17.2,10.2-32.7,25.4-40.7
		l38.9-20.4c4.9-2.6,9-6.4,11.9-11c2.9-4.6,4.5-9.9,4.7-15.4c0.4-10.8-3.2-21.3-10.1-29.6l-10.9-13.2l7.9-9.2l15.1,18.3
		C1053.1,1197,1056.7,1207.5,1056.3,1218.3z"/>
	<path style="fill:#36C63D;" d="M1342.2,1721.5h-13l-9.6-26.1c-0.5-1.4-2-2.1-3.4-1.6l-17.2,5.7c-5,1.7-9.1,5.3-11.3,10l-5.7,12
		h-13.2l10.3-21.7c2.2-4.7,6.3-8.3,11.3-10l20-6.7c1.8-0.6,2.5-2.8,1.3-4.2c-4.8-6-11.7-10.2-19.4-11.8l-53.7-10.3
		c-1.3-0.2-2.6,0.5-3,1.7l-9.3,24.2c-1.6,4.2-2.5,8.7-2.5,13.3v25.6h-11.9v-27.8c0-4.5,0.9-9.1,2.5-13.3l9-23.3
		c0.6-1.6-0.4-3.3-2-3.7l-25.8-5c-11.9-2.3-20.4-12.8-20.1-24.9l0.4-16.7c0.1-5.7-1.1-11.4-3.6-16.6l-13.6-28
		c-4.1-8.4-11.2-14.8-19.9-18l-21.9-8.1c-13.5-5-22.4-18-22.2-32.4l0.9-71.7c0.2-15-8.5-28.6-22.1-34.9l-10.5-4.8l-2.9-1.3l14.3-6.6
		h0l2.9,1.3l8.2,3.8c13.6,6.2,22.3,19.9,22.1,34.8l-0.9,71c-0.2,14.4,8.7,27.4,22.2,32.4l18.5,6.9c8.7,3.2,15.8,9.7,19.9,18l17,35
		c2.5,5.1,3.8,10.8,3.6,16.6l-0.2,9.5c-0.3,12.1,8.2,22.6,20.1,24.9l93.5,18c11.3,2.2,20.6,10.1,24.6,20.9L1342.2,1721.5z"/>
	<path style="fill:#36C63D;" d="M1190.7,1721.5h-11.9l-1.4-22.4c-0.3-4.7-2.1-9.2-5.1-12.7l-14.3-16.8c-0.7-0.9-2.1-0.3-2.1,0.8
		l0.2,7.4c0.1,4.3-1.2,8.6-3.8,12l-22.3,31.7h-14.6l24.8-35.6c2.6-3.5,3.9-7.7,3.8-12l-1-35.1v-0.2l0.6-24.8
		c0.1-5.7-1.1-11.4-3.6-16.6l-5.6-11.5c-3.1-6.4-8.2-11.4-14.6-14.4l-35.2,35.1c-1.5,1.5-1.6,4-0.2,5.6l9.7,11.1
		c6,6.8,8.9,15.7,8.2,24.7l-5.5,73.6h-12l5.2-69.5c0.7-9-2.2-17.9-8.2-24.7l-5.9-6.8c-1.3-1.5-3.6-1.6-5.1-0.2l-14,14
		c-3.6,3.6-5.6,8.4-5.6,13.4l0.3,73.7h-11.9l-0.3-78.7c0-5.1,2-9.9,5.6-13.4l59.6-59.5c1.5-1.5,0.9-3.9-1-4.6l-18.9-7
		c-13.5-5-22.4-18-22.2-32.4l0.9-72.3c0.2-15.6-8.9-30-23.1-36.4l-15.8-7.2l-2.5-1.2l14.3-6.6l2.7,1.2l13.5,6.1
		c14.2,6.5,23.3,20.8,23.1,36.4l-0.9,71.6c-0.2,14.4,8.7,27.4,22.2,32.4l27.6,10.2c8.7,3.2,15.8,9.7,19.9,18l7.9,16.4
		c2.5,5.2,3.7,10.9,3.6,16.6l-0.7,27.6l0.1,4.6c0,1.6,0.6,3.2,1.6,4.4l27.5,33.9c2.9,3.5,4.5,7.9,4.8,12.4L1190.7,1721.5z"/>
	<path style="fill:#36C63D;" d="M1005.5,1138.1l-104.3-119.2c-10.1-11.6-24.7-18.1-40.1-17.7l-8.6,0.2l-20.4-42.3l2.8-1.6
		c9.5-5.7,23.8-18.9,17.8-33.3c-7-16.6-10.8-32.3-10.8-32.4l-2.5-10.2l-7.5,7.3c-1.1,1-6.3,6.1-11.3,13.2c-4.8,6.6-9.5,15-10.1,22.8
		c-13-12.4-30.6-19.8-49.1-19.8h-9l0.2-1.2c2.1-10.7,1.7-30.4-13-35.4c-17-5.8-31.2-13.4-31.3-13.5l-9.2-5l0.4,10.6
		c0.1,1.5,0.4,8.7,2.3,17.2c1.7,8.4,5.2,17.8,11.1,23.5c1.7,1.6,3.5,2.9,5.4,3.9h-19.4c-22.3,0-43,11-55.5,29.5l-0.5,0.8
		c-5.8,8.6-14.7,14.4-24.7,16.3c0,0,0,0,0-0.1c1.1-11.1-0.9-26.4-13.6-30.9c-17.1-5.8-31.2-13.4-31.3-13.5l-9.2-5l0.4,10.6
		c0,1.5,0.5,8.8,2.2,17.2c1.7,7.9,4.8,16.6,10.1,22.4c0,0,0,0,0,0h-10l-3.3-6.1c-10-18.3-27.4-31-47.4-35v-0.1
		c2.1-10.7,1.7-30.2-13-35.3c-17-5.8-31.2-13.5-31.3-13.5l-9.2-5l0.4,10.4c0.1,1.5,0.5,8.9,2.3,17.2c1.8,8.4,5.2,17.8,11.1,23.5
		c0.5,0.5,1,1,1.6,1.4c0,0,0,0,0,0H448c0,0,0,0,0,0c-4.1-4.1-18.6-17-37.1-18.1c-21.6-1.4-39.6,14-40.4,14.6l-4.7,4.1l4.2,4.4
		c0.7,0.7,16.8,18.1,38.3,19.4h2.7c15.7,0,29.1-8.3,34.8-12.5h56.4c21.2,0,40.6,11.5,50.7,30.1l0.2,0.4h-53.6c0,0,0,0,0,0
		c-1.5-1.1-3.1-2.3-4.9-3.6c-6.8-4.5-16.2-9.2-27-9.8c-21.6-1.4-39.6,14-40.3,14.6l-4.7,4.1l4.2,4.5c0.6,0.7,16.7,18.1,38.3,19.3
		c0.9,0.1,1.7,0.1,2.6,0.1c20.4,0,37.1-14.1,37.7-14.7l2.9-2.5h25.1c-1.5,0.8-3,1.8-4.4,3c-0.6,0.6-1.3,1.2-1.9,1.9
		c-10.7,11.6-13.4,35.2-13.6,38l-1.1,10.4l9.6-4.4c0.1-0.1,14.7-7,32.1-11.8c15-4.1,16.5-23.7,15-34.6l-0.4-2.5h42.1
		c16.8,0,32.5-8.3,41.9-22.3l0.5-0.8c8.6-12.7,22-21.2,36.9-23.5c-0.2,0.1-0.4,0.2-0.6,0.3c-0.1,0.1-0.2,0.1-0.4,0.2
		c-1.9,0.9-3.4,2.2-4.9,3.7c-11.7,11.5-12.9,37.9-13,40.8l-0.3,10.5l9.1-5.1c0.1,0,14.3-7.8,31.2-13.7c14.7-5.2,14.9-24.8,12.8-35.6
		l-0.4-1.8h37.7c19.6,0,37.9,9.9,48.8,25.8c0,0,0,0-0.1,0c-13.5-4.1-30.7-2-33.1-1.6l-10.3,1.4l6.5,8.2c0.1,0.1,10.1,12.8,18.8,28.5
		c4.2,7.6,11.9,10.1,19.8,10.1c6.4,0,12.8-1.6,17.3-3.4l2.1-0.7l0.1,0l8,16.5l-58.4,1.3c0,0,0,0,0,0c1.6-11.1,0.2-28-13.3-32.7
		c-17.1-5.8-31.3-13.5-31.5-13.5l-9.2-5l0.5,10.4c0,1.5,0.4,8.9,2.2,17.2c1.8,8.4,5.2,17.8,11.1,23.5c2.8,2.8,6.1,4.6,9.5,6
		c-13.2,5.2-25,13.8-34.1,25.1c-9.6,12-24,19.2-39.4,19.8l-4.3,0.2c0,0,0,0,0,0c1.4-11.1-0.4-27-13.5-31.6
		c-17-5.9-31.2-13.5-31.3-13.5l-9.2-5l0.4,10.4c0,1.5,0.5,8.8,2.2,17.2c2,8.4,5.2,17.8,11.2,23.5c0.2,0.2,0.5,0.5,0.7,0.6l-21.6,0.8
		c-20,0.8-39.1,8.8-53.7,22.5l-17.3,16.3l-26.3-12.8c-9.1-4.4-19.1-6.9-29.2-7.2l0.6-3.2c2.1-10.8,1.7-30.5-12.9-35.5
		c-17.1-5.8-31.3-13.4-31.5-13.5l-9.2-5l0.5,10.6c0,1.5,0.5,8.9,2.2,17.2c1.8,8.4,5.2,17.7,11.1,23.5c2.9,2.8,6.5,4.8,10,6h-5.7
		c-15,0-29.3-5.5-40.4-15.6c-11.9-10.8-26.9-17.2-42.7-18.5l0.5-2.3c2.1-10.7,1.7-30.4-13-35.4c-17-5.8-31.2-13.5-31.3-13.5l-9.2-5
		l0.4,10.4c0,1.5,0.5,8.9,2.2,17.2c2,8.5,5.2,17.9,11.2,23.6c2.2,2.1,4.5,3.7,7.1,4.8c0,0,0,0,0,0h-10.8l0,0l-1.7-1.8
		c-0.4-0.4-4.5-4.9-11.4-9.5c-6.8-4.5-16.2-9.2-26.9-9.8c-21.6-1.2-39.7,14-40.4,14.6l-4.7,4.1l4.2,4.5c0.6,0.7,16.7,18.1,38.3,19.3
		c0.9,0.1,1.7,0.1,2.6,0.1c12.6,0,23.7-5.3,30.5-9.5h26c-10.3,10.6-15.7,29-16.4,31.3l-2.9,10.1l10.2-2.6c0.1-0.1,15.7-4.2,33.7-5.8
		c14-1.2,19.4-16.6,20.8-27.8v-0.1c5.8,2.6,11.2,6.1,16,10.4c13.3,12,30.5,18.7,48.4,18.7h32.5c9.1,0,18.1,2.1,26.3,6l22.2,10.8
		l-19.7,18.5c-5.3-9.7-17.7-24-32-18.8c-17,6.1-32.8,9.1-32.9,9.1l-10.4,2l7,7.9c1,1.1,5.9,6.6,12.5,11.9
		c6.8,5.4,15.1,10.7,23.4,11.4c0.7,0.1,1.5,0.1,2.2,0.1c2.1,0,4-0.2,6-0.7l-25.2,23.7c-6.9-0.4-24.8-0.2-38.9,10.3
		c-17.3,12.9-21.1,36.3-21.4,37.2l-1,6l6.1,0.9c0.4,0,2.8,0.4,6.8,0.4c8.4,0,23.1-1.5,35-10.4c14.5-10.8,19.5-28.9,21-35v-0.1
		c0,0,0,0,0,0l33.7-31.7c0,0,0,0,0,0.1v0.1c-0.5,1.2-0.6,2.6-0.7,3.9c-1.2,16.3,15.4,36.9,17.2,39.2l6.8,8l3.4-9.8
		c0.1-0.1,5.5-15.2,14.4-31.1c7.5-13.5-5.3-28.4-14-35l-0.5-0.4l36.1-34c7.6-7.2,16.6-12.5,26.4-15.7c0,0,0,0-0.1,0.1
		c-9.1,11.9-12,32.1-12.4,34.7l-1.4,10.4l9.7-4.2c0.1,0,14.9-6.4,32.4-10.7c15.1-3.7,17.2-23.1,16.1-34l-0.1-0.7l0,0l40.8-1.6
		c18.8-0.7,36.4-9.6,48.2-24.2c13.2-16.4,32.8-26,53.8-26.5l2,0c0,0-0.1,0.1-0.1,0.1c-10.9,11.4-14.1,34.5-14.5,37.2l-1.5,10.4
		l9.7-4.2c0.1,0,15-6.4,32.4-10.7c15.1-3.6,17.2-22.9,16.1-33.9l38-0.9c11.8-0.2,23.1,4.7,30.8,13.6l105.4,120.5L1005.5,1138.1z
		 M712.6,870.3c5.9,2.8,14.1,6.4,23.2,9.5c5.7,2,6.1,11.4,5.7,17.7c-6,0.5-15.2,0-20.4-4.9C716.4,888,713.8,878.4,712.6,870.3z
		 M475.8,877.7c5.9,2.8,14.1,6.4,23.2,9.5c5.7,2,6.1,11.4,5.7,17.7c-1.1,0.1-2.3,0.1-3.7,0.1c-5.7,0-12.5-1.1-16.7-5
		C479.6,895.4,477.1,885.8,475.8,877.7z M409,922.3c-10.4-0.6-19.7-6.6-25.1-10.9c5.5-3.4,14.5-7.7,24.3-7.7h1.8
		c10.6,0.6,19.8,6.5,25.2,10.8C429.4,918.1,419.5,922.9,409,922.3z M465.8,969.5c-10.6-0.6-19.8-6.5-25.2-10.8
		c5.9-3.7,15.7-8.5,26.3-7.9c10.4,0.6,19.7,6.5,25.1,10.9C486,965.3,476.2,970.1,465.8,969.5z M550.8,989.9
		c-9.3,2.6-17.6,5.6-23.8,8.1c1.8-8,4.9-17.4,9.8-21.7c2.4-1.9,5.4-3.1,8.6-3.7c4.2-0.8,8.7-0.5,12.1,0
		C557.6,978.9,556.5,988.3,550.8,989.9z M600.7,932c5.5,2,6.1,11.4,5.5,17.7c-5.9,0.5-15.1,0-20.3-4.9c-4.7-4.5-7.3-14.1-8.6-22.1
		C583.4,925.4,591.6,928.9,600.7,932z M707.4,943.1c-8.9,3.2-17.1,6.8-23.1,9.6c1.3-8,3.8-17.7,8.4-22.2c5.1-5,14.3-5.5,20.2-5.1
		C713.4,931.6,713,941.1,707.4,943.1z M822.3,926.4c0.2-6.4,5.8-14.7,10.8-21.1c2,6.4,4.8,14.9,8.5,23.7c2.3,5.4-4.4,12.2-9.5,16
		C828.2,941.1,822.1,934,822.3,926.4z M802.5,973.6c-4.7-8.4-9.6-15.9-13.3-21.3c8.1,0,18.1,0.9,23.2,4.7c5.8,4.2,7.9,13.2,8.5,19.2
		C814.8,977.7,805.4,978.8,802.5,973.6z M631.8,1024.2c5.9,2.8,14.1,6.4,23.2,9.5c5.5,2,6.1,11.3,5.7,17.7c-5.4,0.4-15,0.2-20.4-5
		C635.6,1041.9,633,1032.3,631.8,1024.2z M327,1005.3c5.9,2.8,14.1,6.4,23.2,9.5c5.7,2,6.1,11.4,5.7,17.7c-1.1,0.1-2.3,0.1-3.7,0.1
		c-5.7,0-12.5-1.1-16.7-5C330.8,1023,328.2,1013.4,327,1005.3z M281.6,1050.4c-10.6-0.6-19.8-6.5-25.2-10.8
		c5.5-3.4,14.6-7.9,24.5-7.9h1.8c10,0.6,19.1,6,24.5,10.3c0,0,0,0,0,0v0.9c0,0,0,0,0,0C301.3,1046.6,291.8,1051,281.6,1050.4z
		 M363.4,1074c-9.5,0.9-18.3,2.5-24.8,3.7c3.2-7.5,8-16.2,13.6-19.4v-0.1c2.6-1.5,5.8-2.1,9-2.1c4.3,0,8.7,1.1,11.9,2.2
		C372.1,1064.4,369.4,1073.5,363.4,1074z M445.1,1038.5c6,2.7,14.1,6.3,23.2,9.3c5.7,2,6.1,11.4,5.7,17.7c-6,0.5-15.2,0-20.4-4.9
		C449,1056,446.5,1046.4,445.1,1038.5z M479.6,1134.1c-6.4-0.5-14.5-6.4-20.5-11.9c6.4-1.5,15-3.9,24.1-7.1
		c5.5-2.1,11.9,4.9,15.5,10.2C494.3,1129.3,486.9,1134.8,479.6,1134.1z M533.6,1151.2c-4.7,8.4-8.5,16.5-11.1,22.5
		c-4.1-6.4-8.4-14.9-8.4-21.1v-1c0.5-7.3,7-13.6,11.8-17.3C530.5,1138.6,536.4,1146,533.6,1151.2z M441.2,1203.9
		c-8.5,6.4-19.3,7.7-26.3,8c2.2-6.6,6.6-16.6,15.1-22.9c8.4-6.4,19.3-7.9,26.2-8C454.1,1187.7,449.7,1197.6,441.2,1203.9z
		 M617.6,1090.6c-9.3,2.2-17.8,5-24,7.3c2-7.9,5.4-17.2,10.4-21.3c5.7-4.5,14.9-4.1,20.8-3.1
		C624.7,1079.8,623.3,1089.2,617.6,1090.6z M804.4,1036.4c-9.3,2.3-17.8,5-24,7.3c2.1-7.9,5.5-17.2,10.4-21.3
		c3.6-2.8,8.6-3.7,13.4-3.7c2.7,0,5.2,0.2,7.4,0.6C811.5,1025.5,810.2,1035,804.4,1036.4z M740.5,972.2c5.9,2.8,14.1,6.4,23.2,9.5
		c5.7,2,6.1,11.4,5.7,17.7c-1.1,0.1-2.3,0.1-3.7,0.1c-5.7,0-12.5-1.1-16.7-5.2C744.4,989.9,741.8,980.3,740.5,972.2z"/>
</g>
<g>
	<path style="fill:#337AE2;" d="M1742.3,1022c-8.8,0-16.5,6-18.7,14.3h-62.4l-25.9,23.5c-2.8-1.7-6.1-2.7-9.6-2.7
		c-8.6,0-15.9,5.7-18.3,13.4h-56.3l-26.7,13c-2.8-1.7-6.1-2.7-9.7-2.7c-4.2,0-8.1,1.4-11.3,3.7l-33.6-31.6l-120.8-4.7l-39.5-49
		l-90.3,1.1c-0.7-3.8-2.7-7.1-5.4-9.8v0l29.9-62.1c1.2,0.4,2.5,0.7,3.8,0.8c0.7,0.2,1.6,0.2,2.5,0.2c8.6,0,15.9-5.5,18.4-13.3
		c0.4-1.2,0.7-2.5,0.8-3.8h111.1l31.8,47.2h57.3c2.9,7.1,10,12.2,18.1,12.2c8.1,0,15.1-5,17.9-12.2h48.3c2.5,7.7,9.8,13.4,18.4,13.4
		c10.6,0,19.3-8.7,19.3-19.4c0-10.7-8.7-19.4-19.3-19.4c-8.1,0-15.1,5-18.1,12.3c-0.2,0.4-0.3,0.8-0.4,1.3h-47.5
		c-0.9-3.3-2.5-6.3-4.7-8.6l11.9-22h95.9c2.9,7,9.7,11.9,17.8,11.9c10.7,0,19.4-8.7,19.4-19.4c0-10.7-8.7-19.3-19.4-19.3
		c-8.7,0-16.1,5.8-18.4,13.8c-0.1,0.4-0.2,0.7-0.3,1.1h-102l-15.2,28.3h-0.1c-1.2-0.2-2.2-0.4-3.4-0.4c-9,0-16.7,6.3-18.8,14.6
		h-50.1l-31.8-47.3h-120.1c-3.4-5.7-9.6-9.6-16.7-9.6c-10.6,0-19.3,8.7-19.3,19.4c0,4,1.2,7.7,3.4,10.8l-31,64.3
		c-0.9-0.2-1.7-0.2-2.6-0.2c-9.5,0-17.3,6.8-19.1,15.7l-18.3,0.2l-171.3,200.6l1.6,46.2l18.1,9.6l12.9-6.8l-19.3-10.2l-1.2-34.8
		l164.7-192.7l14.5-0.1c3.1,6.5,9.8,10.9,17.5,10.9c7.9,0,14.6-4.7,17.6-11.4l85.9-1.1l39.2,48.7l121.8,4.8l31.3,29.5
		c-0.6,1.8-1,3.8-1,5.9c0,10.7,8.7,19.4,19.4,19.4c2.5,0,4.9-0.5,7-1.4l63.8,60c-1,2.2-1.6,4.7-1.6,7.5c0,10.7,8.7,19.3,19.4,19.3
		c10.7,0,19.3-8.6,19.3-19.3s-8.6-19.4-19.3-19.4c-3.3,0-6.4,0.9-9.1,2.3c-0.4,0.2-0.7,0.3-1,0.5l-62.3-58.7c2-3,3.1-6.5,3.1-10.3
		c0-2.6-0.5-5-1.5-7.3l21.3-10.3h53.6c2.5,7.7,9.7,13.4,18.3,13.4c10.7,0,19.4-8.7,19.4-19.4c0-2.8-0.6-5.4-1.7-7.9l22.5-20.4h58.3
		c2.8,7.4,9.8,12.5,18.2,12.5c10.6,0,19.3-8.6,19.3-19.3C1761.6,1030.7,1752.9,1022,1742.3,1022z M1572.2,946.1
		c4.1,0,7.4,3.3,7.4,7.4c0,4.1-3.3,7.4-7.4,7.4c-4.2,0-7.5-3.3-7.5-7.4C1564.7,949.4,1568,946.1,1572.2,946.1z M1627.1,902.2
		c4.1,0,7.4,3.3,7.4,7.4c0,4.1-3.3,7.4-7.4,7.4c-4.1,0-7.4-3.3-7.4-7.4C1619.7,905.5,1623.1,902.2,1627.1,902.2z M1481.8,947.6
		c0.7-0.9,1.6-1.5,2.6-2s2.1-0.7,3.2-0.7c2.2,0,4.3,1.1,5.7,2.7c0.9,1,1.5,2.3,1.6,3.7v0.1c0.1,0.4,0.1,0.6,0.1,1
		c0,3.4-2.3,6.3-5.5,7.1h-3.7c-0.2-0.1-0.4-0.1-0.6-0.2c-1.5-0.5-2.8-1.5-3.7-2.8c-0.1-0.1-0.1-0.2-0.2-0.3
		c-0.1-0.2-0.2-0.4-0.3-0.6c-0.2-0.4-0.4-0.8-0.5-1.2c0-0.1-0.1-0.2-0.1-0.3c-0.1-0.6-0.2-1.1-0.2-1.8
		C1480,950.6,1480.7,949,1481.8,947.6z M1250,902.7c1.6,0,3.1,0.5,4.3,1.4c2,1.4,3.2,3.6,3.2,6s-1.2,4.7-3.2,6
		c-0.2,0.1-0.4,0.2-0.6,0.4h-0.1c-1,0.6-2.2,1-3.6,1c-3.6,0-6.5-2.6-7.3-5.9v-0.1c-0.1-0.5-0.1-0.9-0.1-1.4
		C1242.6,906.1,1245.9,902.7,1250,902.7z M1207,1007.6c-0.2,0.5-0.5,0.9-0.8,1.3c-0.3,0.3-0.5,0.6-0.8,0.9c-0.6,0.6-1.3,1-2.1,1.4
		c-0.9,0.4-1.8,0.6-2.9,0.6c-1,0-2-0.2-2.9-0.6c-0.8-0.3-1.5-0.8-2.1-1.4c-0.2-0.2-0.3-0.3-0.5-0.5c-0.2-0.2-0.4-0.4-0.5-0.7
		c-0.1-0.1-0.2-0.3-0.3-0.4c-0.1-0.2-0.3-0.4-0.4-0.7c-0.5-1-0.7-2.1-0.7-3.2c0-0.8,0.1-1.7,0.4-2.5c0.1-0.2,0.1-0.3,0.2-0.5
		c0.1-0.3,0.3-0.6,0.5-0.9c0.6-1.2,1.5-2.1,2.7-2.6l0.1-0.1c0.1-0.1,0.2-0.1,0.4-0.2c0,0,0,0,0,0c0.2-0.1,0.4-0.2,0.5-0.3
		c0.2-0.1,0.4-0.1,0.5-0.2c0.1,0,0.2-0.1,0.3-0.1c0.6-0.1,1.1-0.2,1.7-0.2c1.6,0,3.1,0.5,4.4,1.5c0.1,0.1,0.2,0.2,0.4,0.3
		c0.6,0.5,1.1,1.1,1.5,1.8c0.1,0.2,0.2,0.4,0.3,0.6c0.1,0.2,0.2,0.4,0.3,0.7c0.2,0.5,0.3,1,0.4,1.4c0.1,0.4,0.1,0.7,0.1,1.2
		C1207.8,1005.6,1207.5,1006.6,1207,1007.6z M1521.8,1101.8v0.1c-0.1,0.4-0.2,0.7-0.4,1.1c0,0.1,0,0.1-0.1,0.2
		c-0.1,0.3-0.3,0.6-0.4,0.8c-0.1,0.1-0.1,0.2-0.2,0.3c-0.2,0.3-0.4,0.6-0.6,0.8c-0.1,0.2-0.3,0.3-0.5,0.5c-1.3,1.2-3,2-5,2
		c-4.2,0-7.5-3.3-7.5-7.5c0-2.3,1.1-4.4,2.8-5.8c0.1-0.1,0.2-0.2,0.4-0.3c0.1-0.1,0.2-0.2,0.4-0.2c0.1,0,0.1-0.1,0.2-0.1
		c0.1-0.1,0.2-0.1,0.3-0.2c0.1-0.1,0.2-0.1,0.3-0.1c0.1,0,0.2-0.1,0.3-0.1c0.2-0.1,0.4-0.2,0.6-0.2c0,0,0,0,0,0
		c0.2-0.1,0.4-0.1,0.6-0.2c0.5-0.1,1.1-0.2,1.6-0.2c1.8,0,3.4,0.6,4.7,1.7c0.2,0.2,0.4,0.4,0.6,0.6c0.1,0.1,0.3,0.3,0.4,0.4
		c0.6,0.8,1.1,1.6,1.3,2.6c0.2,0.6,0.4,1.4,0.4,2.1C1522.1,1100.6,1522,1101.1,1521.8,1101.8z M1603.3,1178.1c4.1,0,7.4,3.3,7.4,7.5
		c0,4.1-3.3,7.4-7.4,7.4c-4.1,0-7.5-3.3-7.5-7.4C1595.8,1181.4,1599.3,1178.1,1603.3,1178.1z M1633.1,1077.9
		c-0.7,3.3-3.7,5.9-7.4,5.9c-1.6,0-2.9-0.5-4.2-1.4c-0.4-0.2-0.7-0.5-1-0.8c0,0,0,0,0,0c-0.2-0.2-0.4-0.4-0.5-0.6
		c-0.2-0.2-0.4-0.5-0.5-0.8c-0.7-1.1-1.1-2.5-1.1-3.9c0-2.5,1.2-4.8,3.2-6c1-0.7,2.1-1.2,3.3-1.2h0.1c0.2-0.1,0.5-0.1,0.7-0.1
		c4.2,0,7.5,3.3,7.5,7.4C1633.2,1076.9,1633.2,1077.4,1633.1,1077.9z M1742.3,1048.8c-4.2,0-7.5-3.3-7.5-7.4c0-4.1,3.3-7.4,7.5-7.4
		c4.1,0,7.4,3.3,7.4,7.4C1749.7,1045.5,1746.4,1048.8,1742.3,1048.8z"/>
	<path style="fill:#337AE2;" d="M873.7,1644.5l-1.1-46.3l23.7-48.9l58-21.5l-1.6-120.5l101.8-46.3l-1.6-59.2l-15.7-8.2l-5.2,2.7
		c-2.5,1.2-4.8,2.7-6.9,4.4l16.1,8.5l1.2,44.2l-18.2,8.2l-14.4,6.6l-22.9,10.4l-14.4,6.5l-32,14.6l1.6,119.7l-54.7,20.2l-27,55.8
		l1,39.2l-132.3,25.4l-21.9,61.3h11.9l10.6-28.5l0,0l27.5,9.1l9.2,19.4h13.2l-13.8-29.1l-31.9-10.6l4.1-11.2l74.1-14.3l0,0
		l12.6,32.7v32.5h11.9v-34.7l-12.6-32.7L873.7,1644.5z"/>
	<path style="fill:#337AE2;" d="M962,1267.4l16.7,8.9c3.1-2.8,6.4-5.2,10.1-7.1l1.1-0.6l-16.2-8.4l-2.2-65.5l108.4-126.6
		c1.1,0.2,2.2,0.3,3.3,0.4h0.4c10.7,0,19.3-8.7,19.3-19.4c0-1-0.1-1.8-0.2-2.8c-0.2-1.3-0.5-2.5-0.9-3.6l48-56l4.2-154.3
		c0.6-0.1,1.1-0.3,1.7-0.5c8-2.3,13.9-9.7,13.9-18.4c0-2.1-0.4-4.2-1-6c-0.2-0.7-0.5-1.5-0.8-2.2l60.8-44.4
		c3.4,3.3,8.1,5.4,13.3,5.4c4.2,0,8-1.4,11.1-3.6l47.3,35h63.7c3.1,6.5,9.7,11.1,17.5,11.1c7.6,0,14.3-4.5,17.3-11.1h52.2l37.9,36.6
		h101c3.1,6.4,9.6,10.7,17.1,10.7c10.7,0,19.4-8.7,19.4-19.4c0-10.7-8.7-19.3-19.4-19.3c-9.5,0-17.5,7-19.1,16.1h-94.3l-37.7-36.6
		h-55.6c-0.7-4.3-3-8.1-6.1-10.7l21.8-49.4h131l43.6-45c2.6,1.4,5.4,2.1,8.5,2.1c10.7,0,19.4-8.7,19.4-19.4
		c0-10.7-8.7-19.3-19.4-19.3c-10.6,0-19.3,8.6-19.3,19.3c0,3.2,0.7,6.3,2.3,9l-40.2,41.4H1408l-25,56.4c-0.6-0.1-1.2-0.1-1.8-0.1
		c-9.5,0-17.5,6.8-19.1,15.7H1304l-44-32.6c0.7-2,1.1-4.2,1.1-6.4c0-3.1-0.7-6-2-8.5l44.1-32.2l-1.4-76.7c8.7-2,15.2-9.7,15.2-19.1
		c0-1-0.1-2-0.2-2.9l71-42.9l50.1-89.2l0.2-0.4c0.6,0.1,1.2,0.1,1.8,0.1c10.7,0,19.4-8.7,19.4-19.4c0-10.7-8.7-19.3-19.4-19.3
		c-10.6,0-19.3,8.6-19.3,19.3c0,4.1,1.2,7.9,3.4,10.9c0.9,1.4,1.9,2.6,3.1,3.6l-48.3,85.8l-67.6,40.8c-2.7-2.7-6.3-4.7-10.2-5.3
		l-0.5-30.4l-30.7-28.4l-2.3-148.7v-0.3c7.4-2.7,12.5-9.7,12.5-18c0-10.7-8.6-19.4-19.3-19.4c-10.7,0-19.4,8.7-19.4,19.4
		c0,8.6,5.7,15.9,13.4,18.3c0.3,0.1,0.6,0.2,0.9,0.3l1.1,70.9l-44.7-16.5l-18.4-55.2c1.3-1,2.5-2.1,3.5-3.5c3-3.3,4.5-7.6,4.5-12.3
		c0-10.7-8.6-19.3-19.3-19.3c-10.7,0-19.4,8.6-19.4,19.3c0,10.7,8.7,19.4,19.3,19.4l20.3,60.8l54.5,20.1l1.1,70l30.7,28.4l0.5,26.7
		c-6.5,2.9-11.1,9.6-11.1,17.3c0,7.9,4.8,14.7,11.6,17.8l1.2,71.9l-40.6,29.6c-2.7-1.5-5.8-2.2-9-2.2c-10.6,0-19.3,8.6-19.3,19.3
		c0,1.1,0.1,2.2,0.4,3.3l-63.1,46l-0.4,0.3c-2.8-1.5-5.9-2.4-9.3-2.4c-10.7,0-19.3,8.7-19.3,19.4c0,7.7,4.5,14.4,11.1,17.5l-4.2,151
		l-43.8,51c-3-2-6.6-3.2-10.5-3.2c-1.5,0-2.9,0.2-4.3,0.5l-2.4-3.8l-28.6-45V832.8c0.8-0.1,1.5-0.3,2.2-0.5
		c8.1-2.3,14.1-9.8,14.1-18.6c0-1.8-0.2-3.7-0.7-5.3c-0.2-0.6-0.4-1.2-0.6-1.8l33.5-23.7l-0.6-46.7v0c0,0,0,0,0,0
		c8.6-1.8,15.1-9.7,15.1-18.9c0-0.6,0-1.4-0.1-2l64.8-40.8V549.7c7.7-2.5,13.3-9.8,13.3-18.2c0-10.7-8.7-19.4-19.4-19.4
		s-19.3,8.7-19.3,19.4c0,7.6,4.4,14.3,10.9,17.3c0.2,0.1,0.4,0.2,0.6,0.2c0.6,0.3,1.2,0.5,1.8,0.7v118.1l-57.6,36.4
		c-2.7-3.1-6.4-5.3-10.6-6c0,0,0,0,0,0l-1.1-92.7l0-0.1c5.7-3.2,9.5-9.5,9.5-16.6c0-10.7-8.7-19.3-19.4-19.3c-2.1,0-4.1,0.4-5.9,0.9
		l-38.8-38.8V393.4c8-2.4,13.8-9.9,13.8-18.6c0-10.7-8.7-19.3-19.4-19.3c-1.7,0-3.3,0.2-4.8,0.6c-3.3,0.9-6.4,2.6-8.7,4.9
		c-2.6,2.5-4.4,5.7-5.2,9.2c-0.4,1.5-0.6,3-0.6,4.5c0,5.4,2.2,10.3,5.8,13.9c1.6,1.6,3.6,3,5.8,3.9c0.5,0.2,1,0.4,1.4,0.5v143.4
		l40.9,41c-0.2,0.2-0.3,0.5-0.5,0.8c-2,3-3.1,6.6-3.1,10.4c0,9.7,7.1,17.7,16.3,19.2c0.3,0,0.6,0.1,0.9,0.1l1.1,91.6
		c-6.6,3.1-11.2,9.8-11.2,17.6c0,7.9,4.8,14.7,11.7,17.8l0.5,41.7l-29.2,20.6c-2.9-1.9-6.5-3-10.3-3c-10.6,0-19.3,8.7-19.3,19.4
		c0,7.4,4.3,13.8,10.4,17.1v154l30.6,48.1l2.3,3.4c-0.2,0.2-0.3,0.4-0.5,0.5c-2.8,3.3-4.4,7.5-4.4,12.2c0,4.9,1.9,9.5,5,12.9
		l-109.8,128.5L962,1267.4z M1606.8,818.2c4.2,0,7.5,3.3,7.5,7.4c0,4.1-3.3,7.4-7.5,7.4c-4.1,0-7.4-3.3-7.4-7.4
		C1599.4,821.5,1602.7,818.2,1606.8,818.2z M1598.9,655.9c4.2,0,7.5,3.3,7.5,7.4c0,4.1-3.3,7.4-7.5,7.4c-4.1,0-7.4-3.3-7.4-7.4
		C1591.5,659.3,1594.8,655.9,1598.9,655.9z M1374.7,785.7c0.6-1.1,1.5-2.1,2.7-2.8h0.1c1.1-0.6,2.3-1,3.7-1c2.8,0,5.2,1.6,6.4,3.8
		c0.4,0.6,0.6,1.1,0.9,1.8v0.1c0,0.5,0.1,1.1,0.1,1.6c0,4.2-3.3,7.5-7.4,7.5c-4.2,0-7.5-3.3-7.5-7.5
		C1373.7,788.1,1374.1,786.9,1374.7,785.7z M1440.2,448.1c4.2,0,7.5,3.3,7.5,7.4c0,4.1-3.3,7.5-7.5,7.5c-4.1,0-7.4-3.4-7.4-7.5
		C1432.8,451.5,1436.1,448.1,1440.2,448.1z M1182.6,375.1c-4.2,0-7.5-3.3-7.5-7.5c0-4.1,3.3-7.4,7.5-7.4c4.1,0,7.4,3.3,7.4,7.4
		C1189.9,371.8,1186.6,375.1,1182.6,375.1z M1261,373c-4.1,0-7.5-3.3-7.5-7.4s3.4-7.4,7.5-7.4c4.1,0,7.4,3.3,7.4,7.4
		S1265,373,1261,373z M1290.9,612.6c-0.2-0.7-0.4-1.5-0.4-2.3c0-0.4,0-0.6,0.1-1c0-0.2,0.1-0.4,0.1-0.7c0.5-2.2,2-4,3.9-5
		c0.6-0.3,1.2-0.5,1.9-0.6c0.4-0.1,0.9-0.1,1.4-0.1c0.8,0,1.6,0.1,2.3,0.4c0.1,0,0.1,0,0.2,0.1c0.3,0.1,0.5,0.2,0.8,0.2
		c0.2,0.1,0.3,0.1,0.5,0.2c2.2,1.4,3.7,3.7,3.7,6.4c0,2.5-1.2,4.8-3.2,6c-0.1,0.1-0.1,0.1-0.2,0.1v0.1c-0.4,0.1-0.7,0.4-1.1,0.5
		c-0.9,0.4-1.8,0.6-2.8,0.6c-0.7,0-1.4-0.1-2-0.3c-0.2-0.1-0.4-0.1-0.6-0.2c-0.7-0.3-1.4-0.6-1.9-1.1
		C1292.2,615.2,1291.3,614,1290.9,612.6z M1238.8,740c0.9-0.4,1.8-0.6,2.9-0.6c0.2,0,0.4,0,0.7,0c0.7,0.1,1.3,0.2,1.9,0.4
		c0.2,0.1,0.4,0.1,0.6,0.2c2.1,0.9,3.6,2.8,4.1,5c0.1,0.1,0.1,0.4,0.1,0.6c0.1,0.4,0.1,0.7,0.1,1.1c0,4.2-3.3,7.5-7.5,7.5h-0.4
		l-2.9-0.9c-2.5-1.1-4.1-3.7-4.1-6.6C1234.3,743.7,1236.2,741.1,1238.8,740z M1150,806.1c4.1,0,7.4,3.3,7.4,7.4
		c0,0.9-0.1,1.6-0.4,2.3s-0.6,1.5-1.1,2.1c-1.4,1.8-3.4,3-5.9,3c-2.6,0-4.8-1.4-6.1-3.3c-0.7-1.1-1.2-2.6-1.2-4.1
		C1142.7,809.4,1146,806.1,1150,806.1z M1162.2,531.5c0-4.2,3.3-7.5,7.4-7.5c4.1,0,7.4,3.3,7.4,7.5c0,4.1-3.3,7.4-7.4,7.4
		C1165.5,538.8,1162.2,535.5,1162.2,531.5z M1034.1,382.4c-4.1,0-7.4-3.3-7.4-7.5c0-4.1,3.3-7.4,7.4-7.4c4.1,0,7.4,3.3,7.4,7.4
		C1041.5,379,1038.2,382.4,1034.1,382.4z M1081.3,595.6c-2.5-1.2-4.2-3.8-4.2-6.8c0-0.5,0-1,0.1-1.5c0.7-3.3,3.7-5.9,7.3-5.9
		c4.2,0,7.5,3.3,7.5,7.4c0,4.2-3.3,7.5-7.5,7.5C1083.4,596.3,1082.2,596.1,1081.3,595.6z M1084.3,717.3c0-2.3,1-4.3,2.7-5.7
		c1.3-1.1,3-1.7,4.8-1.7c1.3,0,2.6,0.4,3.7,1c0.1,0,0.1,0,0.1,0.1c0,0,0.1,0.1,0.1,0.1c0.4,0.3,0.8,0.5,1.1,0.9
		c0.1,0.1,0.2,0.2,0.3,0.3c0.2,0.2,0.4,0.5,0.6,0.7c0.1,0.2,0.2,0.4,0.4,0.5c0.1,0.1,0.1,0.2,0.2,0.4c0.1,0.2,0.2,0.4,0.3,0.6
		c0,0.1,0.1,0.2,0.1,0.2c0.1,0.4,0.3,0.7,0.3,1.1c0,0.1,0,0.1,0,0.2c0.1,0.4,0.1,0.9,0.1,1.4c0,1.1-0.3,2.2-0.7,3.1
		c-0.1,0.3-0.3,0.5-0.4,0.8c-0.2,0.3-0.3,0.5-0.5,0.7c-0.5,0.6-1,1.1-1.6,1.5c0,0,0,0,0,0v0c-0.1,0-0.2,0.1-0.4,0.2
		c-1.1,0.6-2.3,1-3.7,1c-0.7,0-1.4-0.1-2.1-0.3C1086.5,723.5,1084.3,720.6,1084.3,717.3z M1038.2,816.6c-0.4-0.9-0.6-1.8-0.6-2.8
		c0-4.2,3.3-7.5,7.4-7.5c0.4,0,0.6,0,0.9,0.1h0.1c3.7,0.5,6.5,3.6,6.5,7.4c0,1.1-0.2,2.1-0.7,3.1v0.1c-0.4,0.7-0.9,1.5-1.5,2
		c-1.4,1.4-3.2,2.2-5.3,2.2C1041.9,821.1,1039.3,819.3,1038.2,816.6z M1076.1,1048.8c0.1-3.9,3.4-7.1,7.4-7.1c0.9,0,1.8,0.1,2.6,0.5
		c1,0.4,1.8,1,2.6,1.7c1.4,1.4,2.2,3.1,2.2,5.2c0,4.2-3.3,7.5-7.4,7.5c-1.7,0-3.3-0.6-4.5-1.6c-1.7-1.4-2.8-3.4-2.8-5.9
		C1076.1,1048.9,1076.1,1048.9,1076.1,1048.8z"/>
	<polygon style="fill:#337AE2;" points="1069.3,1274.2 1058.7,1282.1 1072.7,1289.4 1075,1373.7 973,1420.2 974.6,1541.6 
		910.9,1565.3 892.8,1602.5 893.7,1638.8 893.4,1647.3 860,1687.1 857.9,1721.5 869.8,1721.5 871.6,1691.9 892.9,1666.9 
		892.4,1684.4 918.8,1721.5 933.4,1721.5 904.5,1680.6 905.6,1639 905.6,1638.8 904.8,1605.1 919.5,1574.8 929.4,1571.1 966.9,1609 
		945.1,1633.9 952.1,1721.5 964.1,1721.5 957.4,1637.9 975.3,1617.6 997.3,1639.9 997.3,1721.5 1009.3,1721.5 1009.3,1635 
		941.7,1566.6 986.6,1549.9 985.1,1427.9 1024.3,1409.9 1038.7,1403.4 1062.9,1392.4 1077.3,1385.8 1087.1,1381.3 1084.5,1282.1 	
		"/>
</g>
<circle style="fill:none;stroke:#36C63D;stroke-width:3;stroke-miterlimit:10;" cx="1000" cy="1000" r="924.4"/>
<text transform="matrix(1 0 0 1 865.3591 1851.2813)" style="fill:#36C63D; font-family:'Roboto-Black'; font-size:114.5282px;">F G W</text>
</svg>
